<mxfile host="65bd71144e">
    <diagram id="VilJLzrC-tkB66nu02Wa" name="Page-1">
        <mxGraphModel dx="990" dy="556" grid="1" gridSize="10" guides="1" tooltips="1" connect="1" arrows="1" fold="1" page="1" pageScale="1" pageWidth="850" pageHeight="1100" math="0" shadow="0">
            <root>
                <mxCell id="0"/>
                <mxCell id="1" parent="0"/>
                <mxCell id="4" value="" style="edgeStyle=none;html=1;fillColor=#1ba1e2;strokeColor=#006EAF;fontFamily=vazir;fontColor=#000000;labelBorderColor=none;textShadow=0;shadow=0;dashed=1;" edge="1" parent="1" source="2" target="3">
                    <mxGeometry relative="1" as="geometry"/>
                </mxCell>
                <mxCell id="2" value="شروع" style="ellipse;whiteSpace=wrap;html=1;aspect=fixed;fillColor=#1ba1e2;fontColor=#000000;strokeColor=#006EAF;fontFamily=vazir;labelBorderColor=none;textShadow=0;shadow=0;dashed=1;" vertex="1" parent="1">
                    <mxGeometry x="230" y="270" width="80" height="80" as="geometry"/>
                </mxCell>
                <mxCell id="6" value="" style="edgeStyle=none;html=1;fillColor=#1ba1e2;strokeColor=#006EAF;fontFamily=vazir;fontColor=#000000;labelBorderColor=none;textShadow=0;shadow=0;dashed=1;" edge="1" parent="1" source="3" target="5">
                    <mxGeometry relative="1" as="geometry"/>
                </mxCell>
                <mxCell id="3" value="دریافت n" style="shape=parallelogram;perimeter=parallelogramPerimeter;whiteSpace=wrap;html=1;fixedSize=1;fillColor=#1ba1e2;fontColor=#000000;strokeColor=#006EAF;fontFamily=vazir;labelBorderColor=none;textShadow=0;shadow=0;dashed=1;" vertex="1" parent="1">
                    <mxGeometry x="370" y="280" width="120" height="60" as="geometry"/>
                </mxCell>
                <mxCell id="8" value="" style="edgeStyle=none;html=1;fillColor=#1ba1e2;strokeColor=#006EAF;fontFamily=vazir;fontColor=#000000;labelBorderColor=none;textShadow=0;shadow=0;dashed=1;" edge="1" parent="1" source="5" target="7">
                    <mxGeometry relative="1" as="geometry"/>
                </mxCell>
                <mxCell id="11" value="" style="edgeStyle=none;html=1;fillColor=#1ba1e2;strokeColor=#006EAF;fontFamily=vazir;fontColor=#000000;labelBorderColor=none;textShadow=0;shadow=0;dashed=1;" edge="1" parent="1" source="5" target="10">
                    <mxGeometry relative="1" as="geometry"/>
                </mxCell>
                <mxCell id="5" value="if n &amp;gt;= 0" style="rhombus;whiteSpace=wrap;html=1;fillColor=#1ba1e2;fontColor=#000000;strokeColor=#006EAF;fontFamily=vazir;labelBorderColor=none;textShadow=0;shadow=0;dashed=1;" vertex="1" parent="1">
                    <mxGeometry x="390" y="410" width="80" height="80" as="geometry"/>
                </mxCell>
                <mxCell id="14" value="" style="edgeStyle=none;html=1;fillColor=#1ba1e2;strokeColor=#006EAF;fontFamily=vazir;fontColor=#000000;labelBorderColor=none;textShadow=0;shadow=0;dashed=1;" edge="1" parent="1" source="7" target="13">
                    <mxGeometry relative="1" as="geometry"/>
                </mxCell>
                <mxCell id="7" value="چاپ کن مثبت" style="shape=parallelogram;perimeter=parallelogramPerimeter;whiteSpace=wrap;html=1;fixedSize=1;fillColor=#1ba1e2;fontColor=#000000;strokeColor=#006EAF;fontFamily=vazir;labelBorderColor=none;textShadow=0;shadow=0;dashed=1;" vertex="1" parent="1">
                    <mxGeometry x="530" y="420" width="120" height="60" as="geometry"/>
                </mxCell>
                <mxCell id="9" value="بله" style="text;html=1;align=center;verticalAlign=middle;resizable=0;points=[];autosize=1;strokeColor=#006EAF;fillColor=#1ba1e2;fontColor=#000000;fontFamily=vazir;labelBorderColor=none;textShadow=0;shadow=0;dashed=1;" vertex="1" parent="1">
                    <mxGeometry x="480" y="428" width="40" height="30" as="geometry"/>
                </mxCell>
                <mxCell id="17" value="" style="edgeStyle=none;html=1;fillColor=#1ba1e2;strokeColor=#006EAF;fontFamily=vazir;fontColor=#000000;labelBorderColor=none;textShadow=0;shadow=0;dashed=1;" edge="1" parent="1" source="10" target="13">
                    <mxGeometry relative="1" as="geometry"/>
                </mxCell>
                <mxCell id="10" value="چاپ کن منفی" style="shape=parallelogram;perimeter=parallelogramPerimeter;whiteSpace=wrap;html=1;fixedSize=1;fillColor=#1ba1e2;fontColor=#000000;strokeColor=#006EAF;fontFamily=vazir;labelBorderColor=none;textShadow=0;shadow=0;dashed=1;" vertex="1" parent="1">
                    <mxGeometry x="370" y="580" width="120" height="60" as="geometry"/>
                </mxCell>
                <mxCell id="12" value="خیر" style="text;html=1;align=center;verticalAlign=middle;resizable=0;points=[];autosize=1;strokeColor=#006EAF;fillColor=#1ba1e2;fontColor=#000000;fontFamily=vazir;labelBorderColor=none;textShadow=0;shadow=0;dashed=1;" vertex="1" parent="1">
                    <mxGeometry x="420" y="518" width="40" height="30" as="geometry"/>
                </mxCell>
                <mxCell id="13" value="پایان" style="ellipse;whiteSpace=wrap;html=1;fillColor=#1ba1e2;fontColor=#000000;strokeColor=#006EAF;fontFamily=vazir;labelBorderColor=none;textShadow=0;shadow=0;dashed=1;" vertex="1" parent="1">
                    <mxGeometry x="550" y="570" width="80" height="80" as="geometry"/>
                </mxCell>
            </root>
        </mxGraphModel>
    </diagram>
</mxfile>